#!OML:ASF H:\MichaelJackson\Top Level 1\Subject 1\Session 1\male.ASF
:FULLY-SPECIFIED
:DEGREES
860
root -8.8893 16.743 -18.9117 -168.987 -5.59808 -171.776
lowerback 2.30783 0.023231 3.97682
upperback -0.261633 0.0974194 2.04234
thorax -1.55829 -0.0103916 -0.135048
lowerneck -5.33569 -2.05765 -2.30621
upperneck 2.93621 -2.97528 6.64896
head 2.01722 -1.39288 2.44114
rclavicle 7.05686e-015 -7.95139e-016
rhumerus -61.1711 18.4011 -96.8552
rradius 62.6376
rwrist 31.4725
rhand 11.6966 -19.488
rfingers 7.12502
rthumb 36.7336 -45.6208
lclavicle 7.05686e-015 -7.95139e-016
lhumerus -21.5387 -19.2204 80.3122
lradius 77.9856
lwrist -9.68906
lhand -41.9024 -2.99659
lfingers 7.12502
lthumb -14.8011 26.4548
rfemur -18.8675 -5.62292 34.3667
rtibia 37.0452
rfoot -23.6736 -10
rtoes -12.348
lfemur -48.3705 11.1282 -14.952
ltibia 47.7187
lfoot -1.71413 -5.99442
ltoes 39.0262
861
root -8.87541 16.7428 -18.8123 -169.012 -5.4378 -171.761
lowerback 2.89317 0.139552 4.10693
upperback -0.448177 0.297925 2.0088
thorax -2.07198 0.0783524 -0.250336
lowerneck -5.11253 -2.10802 -2.30348
upperneck 2.87774 -3.03285 6.55623
head 1.95779 -1.42665 2.40798
rclavicle -8.15017e-015 1.78906e-014
rhumerus -60.797 18.6093 -96.9341
rradius 62.2666
rwrist 31.3205
rhand 13.1331 -19.9193
rfingers 7.12502
rthumb 38.0916 -45.6936
lclavicle -8.15017e-015 1.78906e-014
lhumerus -22.6838 -19.3146 80.9746
lradius 77.6594
lwrist -9.05439
lhand -40.986 -1.84366
lfingers 7.12502
lthumb -13.9182 27.6705
rfemur -18.9858 -5.54237 34.3421
rtibia 36.8187
rfoot -24.0859 -9.12671
rtoes -8.86981
lfemur -49.0071 11.3001 -14.8855
ltibia 48.1
lfoot -0.653913 -6.43987
ltoes 38.5417
862
root -8.86433 16.7478 -18.7202 -169.07 -5.27945 -171.77
lowerback 2.93764 0.210407 4.13403
upperback -0.255906 0.385715 2.0246
thorax -1.89581 0.12553 -0.253432
lowerneck -5.13529 -2.1106 -2.25426
upperneck 2.62062 -3.01808 6.44489
head 1.87295 -1.42348 2.36084
rclavicle 7.25564e-015 -3.97569e-015
rhumerus -59.8431 19.1881 -96.9294
rradius 61.862
rwrist 31.0154
rhand 14.3801 -20.3573
rfingers 7.12502
rthumb 39.2678 -45.8001
lclavicle 7.25564e-015 -3.97569e-015
lhumerus -23.2094 -19.2436 81.442
lradius 77.0742
lwrist -8.48156
lhand -39.9746 -0.822413
lfingers 7.12502
lthumb -12.9433 28.7561
rfemur -19.1462 -5.79296 34.3437
rtibia 36.6122
rfoot -24.4543 -8.7339
rtoes -8.17668
lfemur -49.5436 11.4265 -14.7948
ltibia 48.4978
lfoot 0.335565 -7.12956
ltoes 36.9612
863
root -8.85469 16.7493 -18.6266 -169.166 -5.05535 -171.766
lowerback 3.00251 0.287281 4.13076
upperback -0.010949 0.47786 2.0514
thorax -1.67705 0.175741 -0.228253
lowerneck -5.18784 -2.09158 -2.20314
upperneck 2.32146 -2.97814 6.38781
head 1.78025 -1.40799 2.33219
rclavicle -5.26779e-015 -4.09496e-014
rhumerus -58.8205 19.8671 -96.9062
rradius 61.5387
rwrist 30.9122
rhand 15.5588 -20.6532
rfingers 7.12502
rthumb 40.3773 -45.7643
lclavicle -5.26779e-015 -4.09496e-014
lhumerus -23.7482 -19.0456 81.903
lradius 76.5308
lwrist -8.04091
lhand -38.88 -0.223758
lfingers 7.12502
lthumb -11.8879 29.4188
rfemur -19.2555 -5.90877 34.3531
rtibia 36.4311
rfoot -23.9767 -8.52792
rtoes -8.40994
lfemur -50.018 11.4374 -14.5465
ltibia 48.9845
lfoot 1.59879 -7.5677
ltoes 38.1905
864
root -8.8435 16.7511 -18.5313 -169.322 -4.7867 -171.771
lowerback 3.60818 0.399673 4.21178
upperback -0.0990631 0.67109 1.98124
thorax -2.09948 0.263885 -0.358588
lowerneck -4.89998 -2.10321 -2.1038
upperneck 2.17913 -2.99612 6.38494
head 1.68084 -1.42369 2.31319
rclavicle -8.94531e-016 3.97569e-016
rhumerus -58.3154 20.3659 -97.1125
rradius 61.2473
rwrist 31.0899
rhand 16.8994 -20.6238
rfingers 7.12502
rthumb 41.6364 -45.3345
lclavicle -8.94531e-016 3.97569e-016
lhumerus -24.904 -19.031 82.4809
lradius 76.1167
lwrist -7.68501
lhand -37.6054 0.527708
lfingers 7.12502
lthumb -10.6586 30.2374
rfemur -19.3739 -5.8048 34.3487
rtibia 36.309
rfoot -24.1349 -8.268
rtoes -6.61123
lfemur -50.4219 11.5169 -14.3082
ltibia 49.5515
lfoot 2.78138 -7.95434
ltoes 38.013
865
root -8.83493 16.7633 -18.443 -169.522 -4.52485 -171.767
lowerback 3.71456 0.450947 4.21122
upperback 0.154888 0.730542 1.98202
thorax -1.89525 0.297626 -0.360677
lowerneck -4.85998 -2.03692 -1.98706
upperneck 1.92672 -2.90384 6.35386
head 1.58431 -1.38309 2.28377
rclavicle 6.75868e-015 1.82882e-014
rhumerus -57.3896 21.5144 -97.3487
rradius 60.9622
rwrist 30.9255
rhand 17.8734 -20.5677
rfingers 7.12502
rthumb 42.5491 -44.9711
lclavicle 6.75868e-015 1.82882e-014
lhumerus -25.4385 -18.839 82.8632
lradius 75.279
lwrist -7.48077
lhand -36.7148 1.3677
lfingers 7.12502
lthumb -9.79945 31.1197
rfemur -19.4442 -5.83727 34.3696
rtibia 36.2092
rfoot -23.9014 -8.08508
rtoes -5.87502
lfemur -50.6983 11.5361 -14.0386
ltibia 50.2428
lfoot 3.83127 -8.33813
ltoes 37.1969
866
root -8.82446 16.7702 -18.3495 -169.756 -4.19041 -171.761
lowerback 3.95465 0.50566 4.13309
upperback 0.406663 0.797948 1.98813
thorax -1.76911 0.333958 -0.315463
lowerneck -4.91912 -1.95565 -1.83216
upperneck 1.79418 -2.80026 6.3156
head 1.5431 -1.3336 2.2454
rclavicle 4.96962e-016 1.82882e-014
rhumerus -56.4371 22.7321 -97.5802
rradius 60.7098
rwrist 30.7975
rhand 18.6344 -20.403
rfingers 7.12502
rthumb 43.2609 -44.5561
lclavicle 4.96962e-016 1.82882e-014
lhumerus -26.0026 -18.5039 83.2425
lradius 74.4153
lwrist -7.27213
lhand -35.8508 1.73959
lfingers 7.12502
lthumb -8.96584 31.5291
rfemur -19.537 -5.67211 34.4067
rtibia 36.203
rfoot -23.5581 -8.22552
rtoes -5.72339
lfemur -50.8909 11.6258 -13.7665
ltibia 51.0648
lfoot 4.77841 -8.54445
ltoes 36.5847
867
root -8.8156 16.7778 -18.2602 -169.976 -3.86928 -171.685
lowerback 4.37372 0.578152 4.20524
upperback 0.434601 0.917822 1.97385
thorax -1.96948 0.388507 -0.381091
lowerneck -4.86323 -1.90976 -1.6659
upperneck 1.94378 -2.75627 6.26802
head 1.57493 -1.31 2.20168
rclavicle 1.19271e-015 -2.78299e-015
rhumerus -55.9167 23.8783 -97.9421
rradius 60.6563
rwrist 30.8054
rhand 19.9381 -20.1546
rfingers 7.12502
rthumb 44.4774 -43.8571
lclavicle 1.19271e-015 -2.78299e-015
lhumerus -27.02 -18.3003 83.7574
lradius 73.5155
lwrist -7.39356
lhand -35.2868 2.23372
lfingers 7.12502
lthumb -8.42153 32.0458
rfemur -19.6494 -5.45324 34.5116
rtibia 36.2498
rfoot -23.2978 -8.13943
rtoes -5.38281
lfemur -51.1105 11.7084 -13.421
ltibia 52.0494
lfoot 5.62855 -8.62836
ltoes 36.12
868
root -8.80875 16.7869 -18.172 -170.221 -3.55668 -171.789
lowerback 4.47882 0.570106 3.99772
upperback 0.729079 0.884499 1.96927
thorax -1.72924 0.377462 -0.267693
lowerneck -4.95743 -1.75041 -1.39078
upperneck 1.9422 -2.55638 6.10824
head 1.5735 -1.21021 2.10508
rclavicle -1.37161e-014 -4.85035e-014
rhumerus -54.9702 25.5106 -98.2586
rradius 60.4153
rwrist 30.5476
rhand 20.3261 -19.8312
rfingers 7.12502
rthumb 44.8388 -43.394
lclavicle -1.37161e-014 -4.85035e-014
lhumerus -27.6985 -17.7036 84.0879
lradius 72.6495
lwrist -7.69476
lhand -34.9342 1.92352
lfingers 7.12502
lthumb -8.0813 31.749
rfemur -19.8012 -5.27806 34.394
rtibia 36.3546
rfoot -22.9344 -8.08802
rtoes -5.12665
lfemur -51.2577 11.7711 -13.3139
ltibia 53.182
lfoot 6.28191 -8.28017
ltoes 36.0486
869
root -8.80462 16.7956 -18.0845 -170.432 -3.27198 -171.825
lowerback 4.87603 0.602993 4.04328
upperback 0.723387 0.952382 1.9002
thorax -1.95323 0.407204 -0.372584
lowerneck -4.83907 -1.68738 -1.24765
upperneck 2.17872 -2.49412 6.1007
head 1.62339 -1.17649 2.08015
rclavicle -3.08116e-015 1.39149e-014
rhumerus -54.5332 26.7866 -98.6827
rradius 60.4702
rwrist 30.4044
rhand 21.2696 -19.612
rfingers 7.12502
rthumb 45.7159 -42.8239
lclavicle -3.08116e-015 1.39149e-014
lhumerus -28.6663 -17.4011 84.5459
lradius 71.4646
lwrist -7.85172
lhand -34.6286 2.22543
lfingers 7.12502
lthumb -7.78633 32.0621
rfemur -19.9588 -5.12509 34.3414
rtibia 36.4832
rfoot -22.6848 -7.82516
rtoes -4.16299
lfemur -51.4281 11.8098 -13.1518
ltibia 54.4298
lfoot 7.14822 -8.02046
ltoes 36.4883
870
root -8.80199 16.8041 -17.997 -170.576 -3.01766 -171.83
lowerback 5.04853 0.615536 4.07373
upperback 0.840253 0.970064 1.89597
thorax -1.92792 0.414915 -0.396336
lowerneck -4.94446 -1.61157 -1.15802
upperneck 2.40868 -2.40933 6.05843
head 1.71066 -1.12858 2.05361
rclavicle 3.97569e-015 8.74653e-015
rhumerus -53.9068 28.4113 -99.0132
rradius 60.4935
rwrist 29.989
rhand 21.7409 -19.5104
rfingers 7.12502
rthumb 46.1533 -42.5409
lclavicle 3.97569e-015 8.74653e-015
lhumerus -29.4525 -16.8519 84.9667
lradius 70.5111
lwrist -7.57242
lhand -34.1456 2.81075
lfingers 7.12502
lthumb -7.32014 32.6641
rfemur -20.2394 -5.14786 34.3441
rtibia 36.6455
rfoot -22.295 -7.6605
rtoes -4.16087
lfemur -51.6935 11.8927 -13.0139
ltibia 55.7815
lfoot 7.87146 -7.70449
ltoes 36.2389
871
root -8.80167 16.8163 -17.9137 -170.732 -2.77404 -172.009
lowerback 5.08063 0.649863 4.02169
upperback 1.06845 0.999581 1.81094
thorax -1.70891 0.433844 -0.455627
lowerneck -5.18894 -1.57291 -1.076
upperneck 2.60211 -2.37616 6.0536
head 1.81443 -1.10477 2.03886
rclavicle -1.00386e-014 1.94809e-014
rhumerus -53.0429 29.9463 -99.1441
rradius 60.6461
rwrist 29.7436
rhand 22.7016 -19.4229
rfingers 7.12502
rthumb 47.043 -42.0702
lclavicle -1.00386e-014 1.94809e-014
lhumerus -30.0022 -16.2434 85.3496
lradius 69.2135
lwrist -8.14091
lhand -34.0866 2.26834
lfingers 7.12502
lthumb -7.26317 32.1237
rfemur -20.495 -5.23556 34.1347
rtibia 36.8345
rfoot -21.9911 -7.18712
rtoes -3.72676
lfemur -51.912 11.9115 -13.0905
ltibia 57.1616
lfoot 8.56444 -7.29609
ltoes 36.0812
